<svg width="23" height="23" viewBox="0 0 23 23" fill="none" xmlns="http://www.w3.org/2000/svg">
<g id="kr" clip-path="url(#clip0_2005_684)">
<g id="Mask group">
<mask id="mask0_2005_684" style="mask-type:luminance" maskUnits="userSpaceOnUse" x="0" y="0" width="23" height="23">
<g id="Group">
<path id="Vector" d="M11.3169 22.8669C17.5025 22.8669 22.5169 17.8524 22.5169 11.6669C22.5169 5.48127 17.5025 0.466858 11.3169 0.466858C5.13135 0.466858 0.116943 5.48127 0.116943 11.6669C0.116943 17.8524 5.13135 22.8669 11.3169 22.8669Z" fill="white"/>
</g>
</mask>
<g mask="url(#mask0_2005_684)">
<g id="Group_2">
<path id="Vector_2" d="M0.116943 0.466858H22.5169V22.8669H0.116943V0.466858Z" fill="#EEEEEE"/>
<path id="Vector_3" d="M15.4429 15.1231L16.4929 14.0731L17.1929 14.7731L16.1429 15.7794L15.4429 15.1231ZM13.7366 16.8294L14.7866 15.7794L15.4429 16.4794L14.4366 17.5294L13.7366 16.8294ZM17.5429 17.1794L18.5491 16.1294L19.2491 16.8294L18.1991 17.8794L17.5429 17.1794ZM15.7929 18.8856L16.8429 17.8794L17.5429 18.5356L16.4929 19.5856L15.7929 18.8856ZM16.4929 16.1294L17.5429 15.1231L18.1991 15.7794L17.1929 16.8294L16.4929 16.1294ZM14.7866 17.8794L15.7929 16.8294L16.4929 17.5294L15.4429 18.5356L14.7866 17.8794ZM17.5429 8.21061L14.7866 5.45436L15.4429 4.79811L18.2429 7.55436L17.5429 8.21061ZM14.7866 7.55436L13.7366 6.50436L14.4366 5.80436L15.4429 6.85436L14.7866 7.55436ZM16.4929 9.26061L15.4429 8.21061L16.1429 7.55436L17.1929 8.56061L16.4929 9.26061ZM16.8429 5.45436L15.7929 4.44811L16.4929 3.74811L17.5429 4.79811L16.8429 5.45436ZM18.5491 7.20436L17.5429 6.15436L18.1991 5.45436L19.2491 6.50436L18.5491 7.20436ZM4.11162 16.1294L6.86787 18.8856L6.16787 19.5856L3.41162 16.8294L4.11162 16.1294ZM6.86787 16.8294L7.87412 17.8794L7.21787 18.5356L6.16787 17.5294L6.86787 16.8294ZM5.11787 15.1231L6.16787 16.1294L5.46787 16.8294L4.46162 15.7794L5.11787 15.1231ZM6.16787 14.0731L8.92412 16.8294L8.22412 17.5294L5.46787 14.7731L6.16787 14.0731ZM6.86787 4.44811L4.11162 7.20436L3.41162 6.50436L6.16787 3.74811L6.86787 4.44811ZM7.87412 5.45436L5.11787 8.21061L4.46162 7.51061L7.21787 4.75436L7.87412 5.45436ZM8.92412 6.50436L6.16787 9.26061L5.46787 8.56061L8.22412 5.80436L8.92412 6.50436Z" fill="#333333"/>
<path id="Vector_4" d="M14.0875 14.4227L8.57495 8.91023C8.93691 8.54827 9.36661 8.26116 9.83953 8.06527C10.3124 7.86938 10.8193 7.76855 11.3312 7.76855C11.8431 7.76855 12.35 7.86938 12.8229 8.06527C13.2958 8.26116 13.7255 8.54827 14.0875 8.91023C14.4494 9.27219 14.7365 9.70189 14.9324 10.1748C15.1283 10.6477 15.2291 11.1546 15.2291 11.6665C15.2291 12.1784 15.1283 12.6852 14.9324 13.1582C14.7365 13.6311 14.4494 14.0608 14.0875 14.4227Z" fill="#D80027"/>
<path id="Vector_5" d="M14.049 14.4253C13.687 14.7872 13.2573 15.0744 12.7844 15.2702C12.3115 15.4661 11.8046 15.567 11.2927 15.567C10.7808 15.567 10.2739 15.4661 9.80103 15.2702C9.32811 15.0744 8.89841 14.7872 8.53645 14.4253C8.1745 14.0633 7.88738 13.6336 7.69149 13.1607C7.4956 12.6878 7.39478 12.1809 7.39478 11.669C7.39478 11.1571 7.4956 10.6503 7.69149 10.1774C7.88738 9.70444 8.1745 9.27474 8.53645 8.91278L14.049 14.4253Z" fill="#0052B4"/>
<path id="Vector_6" d="M9.93174 12.2401C11.007 12.2401 11.8786 11.3684 11.8786 10.2932C11.8786 9.21796 11.007 8.34631 9.93174 8.34631C8.85651 8.34631 7.98486 9.21796 7.98486 10.2932C7.98486 11.3684 8.85651 12.2401 9.93174 12.2401Z" fill="#D80027"/>
<path id="Vector_7" d="M12.6856 14.9939C13.7609 14.9939 14.6325 14.1223 14.6325 13.047C14.6325 11.9718 13.7609 11.1002 12.6856 11.1002C11.6104 11.1002 10.7388 11.9718 10.7388 13.047C10.7388 14.1223 11.6104 14.9939 12.6856 14.9939Z" fill="#0052B4"/>
</g>
</g>
</g>
</g>
<defs>
<clipPath id="clip0_2005_684">
<rect width="22.4" height="22.4" fill="white" transform="translate(0.120117 0.47998)"/>
</clipPath>
</defs>
</svg>
