<svg width="23" height="23" viewBox="0 0 23 23" fill="none" xmlns="http://www.w3.org/2000/svg">
<g id="en-au 1" clip-path="url(#clip0_2005_8426)">
<g id="Mask group">
<mask id="mask0_2005_8426" style="mask-type:luminance" maskUnits="userSpaceOnUse" x="0" y="0" width="23" height="23">
<g id="Group">
<path id="Vector" d="M11.3284 22.8822C17.514 22.8822 22.5284 17.8678 22.5284 11.6822C22.5284 5.49659 17.514 0.482178 11.3284 0.482178C5.14283 0.482178 0.128418 5.49659 0.128418 11.6822C0.128418 17.8678 5.14283 22.8822 11.3284 22.8822Z" fill="white"/>
</g>
</mask>
<g mask="url(#mask0_2005_8426)">
<g id="Group_2">
<path id="Vector_2" d="M22.5284 0.482178V22.8822H0.128418L0.828418 21.3947L0.128418 19.9072V15.1822L2.92842 11.6822L0.128418 8.18218V3.45718L3.10342 0.482178H7.82842L11.3284 3.28218L14.8284 0.482178H19.5534L21.0409 1.18218L22.5284 0.482178Z" fill="#0052B4"/>
<path id="Vector_3" d="M0.128418 0.482178L0.478418 1.44468L0.128418 2.45093V3.45718L4.85342 8.18218H0.128418V9.58218L1.52842 11.6822L0.128418 13.7822V15.1822H4.85342L0.128418 19.9072V22.8822L22.5284 0.482178L21.5222 0.832178L20.5597 0.482178H19.5534L14.8284 5.20718V0.482178H13.4284L11.3284 1.88218L9.22842 0.482178H7.82842V5.20718L3.10342 0.482178H0.128418ZM17.5847 7.43843L17.2784 8.09468L16.5784 7.91968L16.8847 8.57593L16.3597 9.01343L17.0597 9.18843V9.88843L17.5847 9.45093L18.1534 9.88843V9.18843L18.8534 9.01343L18.2847 8.57593L18.5909 7.91968L17.8909 8.09468L17.5847 7.43843ZM20.0784 9.66968L19.7722 10.3259L19.1159 10.1509L19.4222 10.8072L18.8534 11.2447L19.5534 11.3759V12.1197L20.0784 11.6822L20.6472 12.1197V11.3759L21.3472 11.2447L20.7784 10.8072L21.0847 10.1509L20.3847 10.3259L20.0784 9.66968ZM14.7409 10.6322L14.4347 11.2884L13.7347 11.1134L14.0409 11.7697L13.4722 12.2072L14.1722 12.3822V13.0822L14.7409 12.6447L15.3097 13.0822V12.3822L15.9659 12.2072L15.4409 11.7697L15.7472 11.1134L15.0472 11.2884L14.7409 10.6322ZM18.3284 13.0822L18.0659 13.8259H17.2784L17.9347 14.2634L17.6722 15.0072L18.3284 14.5697L18.9409 15.0072L18.7222 14.2634L19.3347 13.8259H18.5472L18.3284 13.0822ZM8.96592 15.7072L8.35342 17.0197L6.99717 16.6697L7.60967 17.9822L6.47217 18.8572L7.87217 19.1634V20.6072L8.96592 19.6884L10.1034 20.6072V19.1634L11.5034 18.8572L10.3659 17.9822L10.9784 16.6697L9.57842 17.0197L8.96592 15.7072ZM17.5847 16.7572L17.2784 17.4134L16.5784 17.2384L16.8847 17.8947L16.3597 18.3322L17.0597 18.4634V19.2072L17.5847 18.7697L18.1534 19.2072V18.4634L18.8534 18.3322L18.2847 17.8947L18.5909 17.2384L17.8909 17.4134L17.5847 16.7572Z" fill="#EEEEEE"/>
<path id="Vector_4" d="M9.22842 13.7822L13.4284 9.58218V0.482178H9.22842V9.58218H0.128418V13.7822H9.22842ZM14.8284 8.18218L22.5284 0.482178H20.5597L14.8284 6.21343V8.18218ZM7.82842 8.18218L0.128418 0.482178V2.45093L5.85967 8.18218H7.82842Z" fill="#D80027"/>
</g>
</g>
</g>
</g>
<defs>
<clipPath id="clip0_2005_8426">
<rect width="22.4" height="22.4" fill="white" transform="translate(0.120117 0.47998)"/>
</clipPath>
</defs>
</svg>
