<svg width="15" height="15" viewBox="0 0 15 15" fill="none" xmlns="http://www.w3.org/2000/svg">
<g id="icon">
<path id="img" fill-rule="evenodd" clip-rule="evenodd" d="M7.5 0C4.5975 0 2.25 2.3475 2.25 5.25C2.25 8.55617 5.95142 13.1843 7.13838 14.5834C7.32999 14.8093 7.67001 14.8093 7.86162 14.5834C9.04858 13.1843 12.75 8.55617 12.75 5.25C12.75 2.3475 10.4025 0 7.5 0ZM7.5 7.875C6.051 7.875 4.875 6.699 4.875 5.25C4.875 3.801 6.051 2.625 7.5 2.625C8.949 2.625 10.125 3.801 10.125 5.25C10.125 6.699 8.949 7.875 7.5 7.875Z" fill="#1BBDC8"/>
</g>
</svg>
