<svg width="20" height="20" viewBox="0 0 20 20" fill="none" xmlns="http://www.w3.org/2000/svg">
<g id="icon">
<path id=" &#226;&#134;&#179; img" fill-rule="evenodd" clip-rule="evenodd" d="M1.05858 15.1939C1.02107 15.2314 1 15.2823 1 15.3353V18.8025C1 18.913 1.08954 19.0025 1.2 19.0025H4.66716C4.7202 19.0025 4.77107 18.9814 4.80858 18.9439L15.6686 8.08392C15.7467 8.00582 15.7467 7.87918 15.6686 7.80108L12.2014 4.33392C12.1233 4.25582 11.9967 4.25582 11.9186 4.33392L1.05858 15.1939ZM18.71 5.0425C19.1 4.6525 19.1 4.0225 18.71 3.6325L16.37 1.2925C15.98 0.9025 15.35 0.9025 14.96 1.2925L13.2714 2.98108C13.1933 3.05918 13.1933 3.18582 13.2714 3.26392L16.7386 6.73108C16.8167 6.80918 16.9433 6.80918 17.0214 6.73108L18.71 5.0425Z" fill="black" fill-opacity="0.87"/>
</g>
</svg>
