<svg width="36" height="36" viewBox="0 0 36 36" fill="none" xmlns="http://www.w3.org/2000/svg">
<g id="Icon_top">
<path id="Vector" fill-rule="evenodd" clip-rule="evenodd" d="M7.5 6.00003C6.30653 6.00003 5.16193 6.47414 4.31802 7.31805C3.47411 8.16196 3 9.30656 3 10.5V22.5C3 23.6935 3.47411 24.8381 4.31802 25.682C5.16193 26.5259 6.30653 27 7.5 27H22.5C23.6935 27 24.8381 26.5259 25.682 25.682C26.5259 24.8381 27 23.6935 27 22.5V20.121L30.4395 23.5605C30.6493 23.7702 30.9165 23.9131 31.2075 23.9709C31.4984 24.0288 31.7999 23.9991 32.074 23.8855C32.348 23.772 32.5823 23.5798 32.7471 23.3332C32.9119 23.0866 32.9999 22.7967 33 22.5V10.5C32.9999 10.2034 32.9119 9.91346 32.7471 9.66684C32.5823 9.42023 32.348 9.22802 32.074 9.11451C31.7999 9.00101 31.4984 8.9713 31.2075 9.02916C30.9165 9.08701 30.6493 9.22982 30.4395 9.43953L27 12.879V10.5C27 9.30656 26.5259 8.16196 25.682 7.31805C24.8381 6.47414 23.6935 6.00003 22.5 6.00003H7.5Z" fill="#27BFB0"/>
</g>
</svg>
