<svg width="20" height="20" viewBox="0 0 20 20" fill="none" xmlns="http://www.w3.org/2000/svg">
<g id="send-alt-1-svgrepo-com 1">
<path id="Vector" d="M9.58358 9.99996H4.5156M4.37195 10.6643L3.53465 13.1655C3.07607 14.5353 2.84678 15.2202 3.01133 15.642C3.15422 16.0083 3.46113 16.286 3.83983 16.3917C4.27593 16.5134 4.93459 16.217 6.25193 15.6242L14.6973 11.8238C15.9831 11.2451 16.626 10.9559 16.8247 10.554C16.9973 10.2048 16.9973 9.79504 16.8247 9.44588C16.626 9.04404 15.9831 8.75471 14.6973 8.17608L6.23736 4.36915C4.92399 3.77814 4.26732 3.48263 3.83166 3.60386C3.45331 3.70913 3.14643 3.98609 3.00304 4.3517C2.83793 4.77269 3.06477 5.45613 3.51846 6.82302L4.37358 9.39938C4.45149 9.63413 4.49046 9.75154 4.50583 9.87154C4.51948 9.97813 4.51934 10.086 4.50543 10.1925C4.48973 10.3125 4.45048 10.4297 4.37195 10.6643Z" stroke="white" stroke-width="1.66667" stroke-linecap="round" stroke-linejoin="round"/>
</g>
</svg>
