<svg width="25" height="24" viewBox="0 0 25 24" fill="none" xmlns="http://www.w3.org/2000/svg">
<g id="Frame 22183">
<path id="Vector" d="M19.5 16V19M19.5 19V22M19.5 19H22.5M19.5 19H16.5" stroke="white" stroke-width="2" stroke-linecap="round" stroke-linejoin="round"/>
<path id="Vector_2" fill-rule="evenodd" clip-rule="evenodd" d="M6.5 2H12.5V8C12.5 8.79565 12.8161 9.55871 13.3787 10.1213C13.9413 10.6839 14.7044 11 15.5 11H21.5V13.341C20.3432 12.9314 19.0887 12.8864 17.9055 13.2119C16.7224 13.5375 15.6675 14.218 14.8831 15.1617C14.0987 16.1055 13.6226 17.267 13.5189 18.4897C13.4151 19.7125 13.6888 20.9376 14.303 22H6.5C5.70435 22 4.94129 21.6839 4.37868 21.1213C3.81607 20.5587 3.5 19.7956 3.5 19V5C3.5 4.20435 3.81607 3.44129 4.37868 2.87868C4.94129 2.31607 5.70435 2 6.5 2ZM21.5 8.828V9H15.5C15.2348 9 14.9804 8.89464 14.7929 8.70711C14.6054 8.51957 14.5 8.26522 14.5 8V2H14.672C15.4672 2.00044 16.2298 2.3166 16.792 2.879L20.622 6.707C21.1843 7.26964 21.5001 8.03256 21.5 8.828Z" fill="white"/>
</g>
</svg>
