<svg width="20" height="20" viewBox="0 0 20 20" fill="none" xmlns="http://www.w3.org/2000/svg">
<path fill-rule="evenodd" clip-rule="evenodd" d="M10.0001 0C6.13006 0 3.00006 3.13 3.00006 7C3.00006 11.4082 7.93529 17.579 9.5179 19.4445C9.77339 19.7457 10.2267 19.7457 10.4822 19.4445C12.0648 17.579 17.0001 11.4082 17.0001 7C17.0001 3.13 13.8701 0 10.0001 0ZM10.0001 10.5C8.0681 10.5 6.5001 8.932 6.5001 7C6.5001 5.068 8.0681 3.5 10.0001 3.5C11.9321 3.5 13.5001 5.068 13.5001 7C13.5001 8.932 11.9321 10.5 10.0001 10.5Z" fill="black" fill-opacity="0.54"/>
</svg>
