<svg width="17" height="16" viewBox="0 0 17 16" fill="none" xmlns="http://www.w3.org/2000/svg">
<path d="M1.5 14.5C1.5 15.3281 2.17188 16 3 16H14C14.8281 16 15.5 15.3281 15.5 14.5V6H1.5V14.5ZM11.5 8.375C11.5 8.16875 11.6687 8 11.875 8H13.125C13.3313 8 13.5 8.16875 13.5 8.375V9.625C13.5 9.83125 13.3313 10 13.125 10H11.875C11.6687 10 11.5 9.83125 11.5 9.625V8.375ZM11.5 12.375C11.5 12.1687 11.6687 12 11.875 12H13.125C13.3313 12 13.5 12.1687 13.5 12.375V13.625C13.5 13.8313 13.3313 14 13.125 14H11.875C11.6687 14 11.5 13.8313 11.5 13.625V12.375ZM7.5 8.375C7.5 8.16875 7.66875 8 7.875 8H9.125C9.33125 8 9.5 8.16875 9.5 8.375V9.625C9.5 9.83125 9.33125 10 9.125 10H7.875C7.66875 10 7.5 9.83125 7.5 9.625V8.375ZM7.5 12.375C7.5 12.1687 7.66875 12 7.875 12H9.125C9.33125 12 9.5 12.1687 9.5 12.375V13.625C9.5 13.8313 9.33125 14 9.125 14H7.875C7.66875 14 7.5 13.8313 7.5 13.625V12.375ZM3.5 8.375C3.5 8.16875 3.66875 8 3.875 8H5.125C5.33125 8 5.5 8.16875 5.5 8.375V9.625C5.5 9.83125 5.33125 10 5.125 10H3.875C3.66875 10 3.5 9.83125 3.5 9.625V8.375ZM3.5 12.375C3.5 12.1687 3.66875 12 3.875 12H5.125C5.33125 12 5.5 12.1687 5.5 12.375V13.625C5.5 13.8313 5.33125 14 5.125 14H3.875C3.66875 14 3.5 13.8313 3.5 13.625V12.375ZM14 2H12.5V0.5C12.5 0.225 12.275 0 12 0H11C10.725 0 10.5 0.225 10.5 0.5V2H6.5V0.5C6.5 0.225 6.275 0 6 0H5C4.725 0 4.5 0.225 4.5 0.5V2H3C2.17188 2 1.5 2.67188 1.5 3.5V5H15.5V3.5C15.5 2.67188 14.8281 2 14 2Z" fill="black" fill-opacity="0.54"/>
</svg>
