<svg width="30" height="30" viewBox="0 0 30 30" fill="none" xmlns="http://www.w3.org/2000/svg">
<g id="Frame 21703">
<g id="Group">
<g id="Group_2">
<path id="Vector" d="M24.427 14.7646C24.1087 14.7646 23.854 15.0192 23.854 15.3376V20.5498C23.854 21.9675 22.6995 23.1177 21.2861 23.1177H8.71392C7.29626 23.1177 6.14601 21.9632 6.14601 20.5498V15.2527C6.14601 14.9344 5.89134 14.6797 5.57301 14.6797C5.25467 14.6797 5 14.9344 5 15.2527V20.5498C5 22.5999 6.66808 24.2637 8.71392 24.2637H21.2861C23.3362 24.2637 25 22.5956 25 20.5498V15.3376C25 15.0235 24.7453 14.7646 24.427 14.7646Z" fill="black"/>
<path id="Vector_2" d="M14.597 19.716C14.7073 19.8264 14.8559 19.8858 15.0002 19.8858C15.1445 19.8858 15.2931 19.8306 15.4034 19.716L19.0452 16.0743C19.2701 15.8493 19.2701 15.4885 19.0452 15.2636C18.8202 15.0386 18.4594 15.0386 18.2345 15.2636L15.5732 17.9291V6.30347C15.5732 5.98514 15.3185 5.73047 15.0002 5.73047C14.6818 5.73047 14.4272 5.98514 14.4272 6.30347V17.9291L11.7616 15.2636C11.5367 15.0386 11.1759 15.0386 10.9509 15.2636C10.726 15.4885 10.726 15.8493 10.9509 16.0743L14.597 19.716Z" fill="black"/>
</g>
</g>
</g>
</svg>
