<svg width="24" height="24" viewBox="0 0 24 24" fill="none" xmlns="http://www.w3.org/2000/svg">
<g id="icon">
<path id=" &#226;&#134;&#179; img" fill-rule="evenodd" clip-rule="evenodd" d="M16.6359 14.7846L16.6373 14.7849L17.1659 15.3145L17.52 15.6686L17.5196 15.669L22.8 20.9599L20.9598 22.8L15.6689 17.5197L15.6686 17.5201L15.3145 17.166L14.7849 16.6374L14.7845 16.636L13.899 15.7505C12.5798 16.6985 10.9649 17.2549 9.2274 17.2549C4.79378 17.2549 1.19995 13.6611 1.19995 9.22746C1.19995 4.79384 4.79378 1.20001 9.2274 1.20001C13.661 1.20001 17.2548 4.79384 17.2548 9.22746C17.2548 10.965 16.6984 12.5799 15.7505 13.8991L16.6359 14.7846ZM9.22748 14.785C6.15235 14.785 3.67002 12.3027 3.67002 9.22754C3.67002 6.15241 6.15235 3.67008 9.22748 3.67008C12.3026 3.67008 14.7849 6.15241 14.7849 9.22754C14.7849 12.3027 12.3026 14.785 9.22748 14.785Z" fill="#8D8D8D" fill-opacity="0.87"/>
</g>
</svg>
