<svg width="14" height="14" viewBox="0 0 14 14" fill="none" xmlns="http://www.w3.org/2000/svg">
<g id="icon" clip-path="url(#clip0_9_64649)">
<path id="img" d="M9.30477 4.50048C8.92717 2.17496 8.03654 0.542145 7.00008 0.542145C5.96362 0.542145 5.073 2.17496 4.69539 4.50048H9.30477ZM4.50008 7.00048C4.50008 7.5786 4.53133 8.13329 4.58602 8.66714H9.41154C9.46623 8.13329 9.49748 7.5786 9.49748 7.00048C9.49748 6.42235 9.46623 5.86767 9.41154 5.33381H4.58602C4.53133 5.86767 4.50008 6.42235 4.50008 7.00048ZM12.9558 4.50048C12.211 2.73225 10.7032 1.36506 8.84123 0.812978C9.47664 1.69319 9.91414 3.01871 10.1433 4.50048H12.9558ZM5.15633 0.812978C3.29696 1.36506 1.78654 2.73225 1.04435 4.50048H3.85685C4.08342 3.01871 4.52091 1.69319 5.15633 0.812978ZM13.2345 5.33381H10.2475C10.3022 5.88069 10.3334 6.44058 10.3334 7.00048C10.3334 7.56037 10.3022 8.12027 10.2475 8.66714H13.2319C13.3751 8.13329 13.4558 7.5786 13.4558 7.00048C13.4558 6.42235 13.3751 5.86767 13.2345 5.33381ZM3.66675 7.00048C3.66675 6.44058 3.698 5.88069 3.75269 5.33381H0.765706C0.625081 5.86767 0.541748 6.42235 0.541748 7.00048C0.541748 7.5786 0.625081 8.13329 0.765706 8.66714H3.75008C3.698 8.12027 3.66675 7.56037 3.66675 7.00048ZM4.69539 9.50048C5.073 11.826 5.96362 13.4588 7.00008 13.4588C8.03654 13.4588 8.92717 11.826 9.30477 9.50048H4.69539ZM8.84383 13.188C10.7032 12.6359 12.2136 11.2687 12.9584 9.50048H10.1459C9.91675 10.9822 9.47925 12.3078 8.84383 13.188ZM1.04435 9.50048C1.78914 11.2687 3.29696 12.6359 5.15894 13.188C4.52352 12.3078 4.08602 10.9822 3.85685 9.50048H1.04435Z" fill="black" fill-opacity="0.87"/>
</g>
<defs>
<clipPath id="clip0_9_64649">
<rect width="13.3333" height="13.3333" fill="white" transform="translate(0.333374 0.333649)"/>
</clipPath>
</defs>
</svg>
