<svg width="20" height="20" viewBox="0 0 20 20" fill="none" xmlns="http://www.w3.org/2000/svg">
<path fill-rule="evenodd" clip-rule="evenodd" d="M3.6679 11.5479C4.4386 12.6379 5.4065 13.821 6.58036 14.9684C10.0228 18.3332 12.7797 19.0591 15.3191 18.9964C15.3299 18.9962 15.3401 18.9954 15.3497 18.9941C15.8759 18.9787 16.3667 18.8743 16.8219 18.6935C16.8261 18.6935 16.8303 18.6914 16.8345 18.6894C16.8387 18.6873 16.8429 18.6853 16.8471 18.6853C17.3581 18.4808 17.8105 18.1618 18.221 17.7202C18.4639 17.4585 18.6482 17.1804 18.7907 16.8859C18.8242 16.8205 18.8493 16.7551 18.8744 16.6897L18.8744 16.6896C18.9582 16.4606 19.0001 16.2234 19.0001 15.9944C19.0001 15.7654 18.9498 15.5609 18.8661 15.3565C18.7739 15.152 18.6231 14.9802 18.4053 14.833L15.6323 12.9109C15.4229 12.7719 15.2302 12.6656 15.0459 12.592C14.8616 12.5183 14.694 12.4856 14.5349 12.4856C14.3254 12.4856 14.1327 12.5429 13.9401 12.6574C13.7474 12.7555 13.5463 12.9109 13.3369 13.1154L12.7002 13.7288C12.608 13.8188 12.4991 13.8679 12.3567 13.8679C12.2813 13.8679 12.2143 13.8597 12.1473 13.8352C12.1204 13.8239 12.0952 13.8127 12.0719 13.8022L12.0719 13.8022L12.0718 13.8021C12.0442 13.7898 12.0191 13.7786 11.9965 13.7697C11.9006 13.7207 10.7268 12.576 9.63987 11.5161L9.63978 11.516L9.63975 11.516C9.07704 10.9672 8.53766 10.4412 8.18324 10.1018C7.67442 9.60123 6.90518 8.82887 6.79655 8.62974C6.78666 8.6001 6.77411 8.57045 6.76032 8.53791L6.76032 8.53791L6.76031 8.53789C6.74863 8.51033 6.73608 8.48069 6.72352 8.44721C6.70526 8.3742 6.69613 8.31032 6.69613 8.2373C6.69613 8.09128 6.74178 7.97264 6.84219 7.87224L7.53595 7.15125C7.75503 6.93222 7.92847 6.71318 8.04714 6.50327C8.17494 6.29336 8.23884 6.07433 8.23884 5.85529C8.23884 5.68189 8.1932 5.49023 8.11104 5.29857C8.02888 5.09779 7.91021 4.88788 7.7459 4.65972L5.62811 1.67536C5.4638 1.43807 5.25384 1.27379 5.01651 1.16428C4.7883 1.05476 4.5327 1 4.2771 1C3.6016 1 2.96261 1.28292 2.37839 1.85789C1.89459 2.31421 1.54771 2.8253 1.32862 3.38201C1.10954 3.9296 1 4.52282 1 5.14342C1 6.09258 1.21908 7.08737 1.64812 8.12779C2.08628 9.15908 2.68876 10.1995 3.43729 11.2399C3.51915 11.3496 3.59579 11.452 3.6679 11.5479Z" fill="#1BBDC8"/>
</svg>
