<svg width="20" height="20" viewBox="0 0 20 20" fill="none" xmlns="http://www.w3.org/2000/svg">
<g id="icon">
<path id="img" fill-rule="evenodd" clip-rule="evenodd" d="M4.13333 2H15.8667L15.8669 2C15.8708 1.99996 15.894 1.99975 15.9306 2.03784C15.9692 2.07808 16 2.141 16 2.22222V17.7778C16 17.859 15.9692 17.9219 15.9306 17.9622C15.894 18.0003 15.8708 18 15.8669 18L15.8667 18H4.13333L4.13307 18C4.12921 18 4.10601 18.0003 4.06944 17.9622C4.03082 17.9219 4 17.859 4 17.7778V2.22222C4 2.141 4.03082 2.07808 4.06944 2.03784C4.10601 1.99975 4.12921 1.99996 4.13307 2L4.13333 2ZM15.8667 0H4.13333C2.96 0 2 1 2 2.22222V17.7778C2 19 2.96 20 4.13333 20H15.8667C17.04 20 18 19 18 17.7778V2.22222C18 1 17.04 0 15.8667 0ZM14 15H6V13H14V15ZM6 11H14V9H6V11ZM14 7H6V5H14V7Z" fill="#27BFB0"/>
</g>
</svg>
