<svg width="20" height="20" viewBox="0 0 20 20" fill="none" xmlns="http://www.w3.org/2000/svg">
<g id="icon">
<path id="Vector" d="M5.45449 8.27265C6.17368 8.27265 6.87673 8.05938 7.47472 7.65982C8.07271 7.26025 8.53879 6.69234 8.81401 6.02788C9.08924 5.36343 9.16125 4.63229 9.02094 3.92691C8.88063 3.22154 8.5343 2.5736 8.02575 2.06506C7.51721 1.55651 6.86928 1.21018 6.1639 1.06987C5.45852 0.929564 4.72738 1.00158 4.06293 1.2768C3.39847 1.55202 2.83056 2.0181 2.43099 2.61609C2.03143 3.21408 1.81816 3.91713 1.81816 4.63632C1.81816 5.60074 2.20127 6.52565 2.88322 7.20759C3.56516 7.88954 4.49007 8.27265 5.45449 8.27265ZM5.45449 2.81816C5.81408 2.81816 6.16561 2.9248 6.4646 3.12458C6.7636 3.32436 6.99664 3.60832 7.13425 3.94054C7.27186 4.27277 7.30787 4.63834 7.23771 4.99103C7.16756 5.34372 6.99439 5.66768 6.74012 5.92196C6.48585 6.17623 6.16188 6.3494 5.80919 6.41955C5.4565 6.4897 5.09093 6.4537 4.75871 6.31609C4.42648 6.17847 4.14252 5.94544 3.94274 5.64644C3.74296 5.34745 3.63632 4.99592 3.63632 4.63632C3.63632 4.15412 3.82788 3.69166 4.16885 3.35069C4.50982 3.00972 4.97228 2.81816 5.45449 2.81816ZM0.909081 19.1816H19.0907C19.2347 19.1817 19.3767 19.1475 19.505 19.0818C19.6332 19.0162 19.744 18.9211 19.8283 18.8043C19.9125 18.6874 19.9678 18.5522 19.9896 18.4098C20.0113 18.2675 19.9989 18.1219 19.9534 17.9853L16.3171 7.0763C16.2663 6.92364 16.1758 6.7872 16.055 6.68092C15.9343 6.57464 15.7874 6.50233 15.6295 6.47136C15.4716 6.44039 15.3084 6.45188 15.1564 6.50466C15.0044 6.55743 14.8691 6.6496 14.7644 6.77176L9.86444 12.489L6.90902 10.2726C6.81351 10.201 6.70483 10.1489 6.58918 10.1193C6.47354 10.0896 6.35319 10.0831 6.235 10.0999C6.11682 10.1168 6.00312 10.1568 5.9004 10.2176C5.79767 10.2785 5.70793 10.3589 5.6363 10.4544L0.181817 17.7271C0.0805203 17.8621 0.0188354 18.0228 0.00367374 18.1909C-0.0114879 18.359 0.0204728 18.5281 0.0959746 18.6791C0.171476 18.8301 0.287536 18.9571 0.431149 19.0458C0.574762 19.1346 0.740254 19.1816 0.909081 19.1816ZM6.54538 12.2726L9.45444 14.4544C9.63909 14.5929 9.8695 14.6559 10.0989 14.6308C10.3284 14.6056 10.5396 14.4941 10.6899 14.3189L15.0998 9.17445L17.8271 17.3635H2.72724L6.54538 12.2726Z" fill="black"/>
</g>
</svg>
