<svg width="30" height="28" viewBox="0 0 30 28" fill="none" xmlns="http://www.w3.org/2000/svg">
<path fill-rule="evenodd" clip-rule="evenodd" d="M10.1576 7.30769H11.2863C12.1248 7.30769 12.5599 6.9483 12.5599 6.17907V5.44136C12.604 4.24338 13.3922 3.69483 14.2686 3.69483H15.3972C16.2421 3.69483 16.6709 3.33544 16.6709 2.5662V1.00883C16.6709 0.435057 16.3493 0 15.6494 0H13.5183C12.831 0 12.5347 0.321564 12.5347 1.04035V1.9483C12.5347 2.76797 11.9042 3.5372 10.9773 3.58134H9.40731C8.72005 3.58134 8.42371 3.9029 8.42371 4.62169V5.56116C8.42371 6.40605 7.76166 7.1942 6.78436 7.1942H5.75032C4.93064 7.1942 4.5082 7.62926 4.5082 8.56873V9.71627C4.5082 10.9773 3.69483 11.6646 2.79319 11.6646H1.27364C0.428752 11.6646 0 12.024 0 12.7932V15.3279C0 16.0971 0.435057 16.4565 1.27364 16.4565H2.79319C3.69483 16.4565 4.5082 16.8474 4.5082 18.1148V19.0164C4.5082 19.9559 4.93695 20.3909 5.75032 20.3909H6.78436C7.76166 20.3909 8.42371 21.1854 8.42371 22.024V22.976C8.42371 23.7011 8.72005 24.0164 9.40731 24.0164H10.9836H10.9773C11.9105 24.0668 12.5347 24.8361 12.5347 25.6557V26.57C12.5347 27.2888 12.8247 27.6103 13.5183 27.6103H15.6494C16.3493 27.6103 16.6709 27.1753 16.6709 26.6015V25.0504C16.6709 24.2812 16.2358 23.9218 15.3972 23.9218H14.2686C13.3922 23.9218 12.5977 23.3796 12.5599 22.1879V21.4187C12.5599 20.6494 12.1248 20.29 11.2863 20.29H10.1576C9.24969 20.29 8.44262 19.6091 8.44262 18.3417V17.7301C8.44262 16.7907 8.86507 16.3556 9.68474 16.3556H10.7188C11.6961 16.3556 12.3581 15.5612 12.3581 14.7163V13.4111C12.3581 12.5662 11.6961 11.7718 10.7188 11.7718H9.68474C8.86507 11.7718 8.44262 11.3367 8.44262 10.3972V9.1425C8.44262 7.88146 9.24969 7.30139 10.1576 7.30139V7.30769ZM17.396 13.7327V14.4767C17.396 15.4161 17.8247 15.8512 18.6381 15.8512H19.6721C20.6494 15.8512 21.3115 16.6456 21.3115 17.4905V18.3607C21.3115 19.3001 20.8827 19.8676 19.8928 19.8676H18.6948C17.6482 19.8676 17.1059 19.3884 17.1059 18.4111V17.604C17.1059 16.8348 16.5511 16.3304 15.8764 16.3304H14.0984C13.2093 16.3304 12.9887 16.9357 12.9887 17.604V19.1929C12.9887 20.0378 13.4931 20.3216 14.1425 20.3216H15.2396C16.4754 20.3216 17.0744 20.8638 17.0744 21.7339V22.3329C17.0744 23.3165 17.6356 23.6948 18.5246 23.6948H20.3657C21.2799 23.6948 21.7213 23.2093 21.7213 22.3897V21.715C21.7213 20.5864 22.3518 20.2207 23.5498 20.2207H24.8172C25.517 20.2207 25.8386 19.7919 25.8386 19.2119V16.8789C25.8386 16.1097 25.4035 15.7503 24.5649 15.7503H23.0454C22.1375 15.7503 21.3304 15.0631 21.3304 13.802V13.058C21.3304 12.1185 20.9016 11.6835 20.082 11.6835H19.0479C18.0769 11.6835 17.4086 10.889 17.4086 10.0441V9.18033C17.4086 8.24086 17.8373 7.6797 18.8272 7.6797H20.0252C21.0719 7.6797 21.6141 8.15889 21.6141 9.12989V9.93695C21.6141 10.7062 22.169 11.2106 22.8436 11.2106H24.6217C25.5107 11.2106 25.7314 10.6116 25.7314 9.93695V8.34805C25.7314 7.50946 25.227 7.21942 24.5776 7.21942H23.4805C22.2446 7.21942 21.6457 6.67718 21.6457 5.80706V5.2396C21.6457 4.25599 21.116 3.84615 20.2207 3.84615H18.3544C17.4464 3.84615 16.9987 4.32535 16.9987 5.15132V5.81967C16.9987 6.9483 16.3745 7.314 15.1702 7.314H13.9029C13.203 7.314 12.8815 7.74905 12.8815 8.32282V10.6557C12.8815 11.425 13.3165 11.7907 14.1551 11.7907H15.6683C16.5763 11.7907 17.3897 12.4716 17.3897 13.739L17.396 13.7327ZM28.6822 15.7629C29.4136 15.7629 30 15.1765 30 14.4451V13.4426C30 12.7175 29.4136 12.1248 28.6822 12.1248H27.6797C26.9546 12.1248 26.3619 12.7175 26.3619 13.4426V14.4451C26.3619 15.1765 26.9546 15.7629 27.6797 15.7629H28.6822Z" fill="#2CD5C4"/>
</svg>
