<svg width="24" height="24" viewBox="0 0 24 24" fill="none" xmlns="http://www.w3.org/2000/svg">
<g id="Icons">
<path id="Vector" d="M17.0075 2H7.0025C4.24112 2 2 4.23112 2 6.98249V12.9655V13.966C2 16.7174 4.24112 18.9485 7.0025 18.9485H8.50325C8.77339 18.9485 9.13357 19.1286 9.30365 19.3487L10.8044 21.3397C11.4647 22.2201 12.5453 22.2201 13.2056 21.3397L14.7064 19.3487C14.8964 19.0985 15.1966 18.9485 15.5068 18.9485H17.0075C19.7689 18.9485 22.01 16.7174 22.01 13.966V6.98249C22.01 4.23112 19.7689 2 17.0075 2ZM8.003 12.005C7.44272 12.005 7.0025 11.5548 7.0025 11.0045C7.0025 10.4542 7.45273 10.004 8.003 10.004C8.55328 10.004 9.0035 10.4542 9.0035 11.0045C9.0035 11.5548 8.56328 12.005 8.003 12.005ZM12.005 12.005C11.4447 12.005 11.0045 11.5548 11.0045 11.0045C11.0045 10.4542 11.4547 10.004 12.005 10.004C12.5553 10.004 13.0055 10.4542 13.0055 11.0045C13.0055 11.5548 12.5653 12.005 12.005 12.005ZM16.007 12.005C15.4467 12.005 15.0065 11.5548 15.0065 11.0045C15.0065 10.4542 15.4567 10.004 16.007 10.004C16.5573 10.004 17.0075 10.4542 17.0075 11.0045C17.0075 11.5548 16.5673 12.005 16.007 12.005Z" fill="white"/>
</g>
</svg>
