<svg width="24" height="24" viewBox="0 0 24 24" fill="none" xmlns="http://www.w3.org/2000/svg">
<g id="Icons">
<g id="ico">
<path id="Vector" d="M22 20.5543H2.72289C2.32771 20.5543 2 20.882 2 21.2772C2 21.6723 2.32771 22 2.72289 22H22C22.3952 22 22.7229 21.6723 22.7229 21.2772C22.7229 20.882 22.3952 20.5543 22 20.5543Z" fill="#8D8D8D"/>
<path id="Vector_2" d="M17.1807 2H7.54219C4.65062 2 3.68677 3.7253 3.68677 5.85542V21.2771H9.4699V15.4361C9.4699 14.9349 9.87472 14.5301 10.3759 14.5301H14.3566C14.8482 14.5301 15.2627 14.9349 15.2627 15.4361V21.2771H21.0458V5.85542C21.0362 3.7253 20.0723 2 17.1807 2ZM14.7711 8.98795H13.0844V10.6747C13.0844 11.0699 12.7566 11.3976 12.3615 11.3976C11.9663 11.3976 11.6386 11.0699 11.6386 10.6747V8.98795H9.95183C9.55665 8.98795 9.22894 8.66024 9.22894 8.26506C9.22894 7.86988 9.55665 7.54217 9.95183 7.54217H11.6386V5.85542C11.6386 5.46024 11.9663 5.13253 12.3615 5.13253C12.7566 5.13253 13.0844 5.46024 13.0844 5.85542V7.54217H14.7711C15.1663 7.54217 15.494 7.86988 15.494 8.26506C15.494 8.66024 15.1663 8.98795 14.7711 8.98795Z" fill="#8D8D8D"/>
</g>
</g>
</svg>
