<svg width="24" height="24" viewBox="0 0 24 24" fill="none" xmlns="http://www.w3.org/2000/svg">
<g id="Icons">
<path id="Vector" d="M18.2381 6.7619H16.3333C16.3333 4.13333 14.2 2 11.5714 2C8.94286 2 6.80952 4.13333 6.80952 6.7619H4.90476C3.85714 6.7619 3.00952 7.61905 3.00952 8.66667L3 20.0952C3 21.1429 3.85714 22 4.90476 22H18.2381C19.2857 22 20.1429 21.1429 20.1429 20.0952V8.66667C20.1429 7.61905 19.2857 6.7619 18.2381 6.7619ZM11.5714 3.90476C13.1524 3.90476 14.4286 5.18095 14.4286 6.7619H8.71429C8.71429 5.18095 9.99048 3.90476 11.5714 3.90476ZM11.5714 13.4286C8.94286 13.4286 6.80952 11.2952 6.80952 8.66667H8.71429C8.71429 10.2476 9.99048 11.5238 11.5714 11.5238C13.1524 11.5238 14.4286 10.2476 14.4286 8.66667H16.3333C16.3333 11.2952 14.2 13.4286 11.5714 13.4286Z" fill="#8D8D8D"/>
</g>
</svg>
