<svg width="36" height="36" viewBox="0 0 36 36" fill="none" xmlns="http://www.w3.org/2000/svg">
<g clip-path="url(#clip0_292_25034)">
<path d="M23.1855 12.375C22.3359 7.14258 20.332 3.46875 18 3.46875C15.668 3.46875 13.6641 7.14258 12.8145 12.375H23.1855ZM12.375 18C12.375 19.3008 12.4453 20.5488 12.5684 21.75H23.4258C23.5488 20.5488 23.6191 19.3008 23.6191 18C23.6191 16.6992 23.5488 15.4512 23.4258 14.25H12.5684C12.4453 15.4512 12.375 16.6992 12.375 18ZM31.4004 12.375C29.7246 8.39648 26.332 5.32031 22.1426 4.07812C23.5723 6.05859 24.5566 9.04102 25.0723 12.375H31.4004ZM13.8516 4.07812C9.66797 5.32031 6.26953 8.39648 4.59961 12.375H10.9277C11.4375 9.04102 12.4219 6.05859 13.8516 4.07812ZM32.0273 14.25H25.3066C25.4297 15.4805 25.5 16.7402 25.5 18C25.5 19.2598 25.4297 20.5195 25.3066 21.75H32.0215C32.3438 20.5488 32.5254 19.3008 32.5254 18C32.5254 16.6992 32.3438 15.4512 32.0273 14.25ZM10.5 18C10.5 16.7402 10.5703 15.4805 10.6934 14.25H3.97266C3.65625 15.4512 3.46875 16.6992 3.46875 18C3.46875 19.3008 3.65625 20.5488 3.97266 21.75H10.6875C10.5703 20.5195 10.5 19.2598 10.5 18ZM12.8145 23.625C13.6641 28.8574 15.668 32.5312 18 32.5312C20.332 32.5312 22.3359 28.8574 23.1855 23.625H12.8145ZM22.1484 31.9219C26.332 30.6797 29.7305 27.6035 31.4062 23.625H25.0781C24.5625 26.959 23.5781 29.9414 22.1484 31.9219ZM4.59961 23.625C6.27539 27.6035 9.66797 30.6797 13.8574 31.9219C12.4277 29.9414 11.4434 26.959 10.9277 23.625H4.59961Z" fill="#1BBDC8"/>
</g>
<defs>
<clipPath id="clip0_292_25034">
<rect width="30" height="30" fill="white" transform="translate(3 3)"/>
</clipPath>
</defs>
</svg>
