<svg width="30" height="30" viewBox="0 0 30 30" fill="none" xmlns="http://www.w3.org/2000/svg">
<path d="M20.3569 9.19443C19.4797 3.79213 17.4108 -0.000976562 15.003 -0.000976562C12.5953 -0.000976562 10.5263 3.79213 9.64912 9.19443H20.3569ZM9.1954 15.002C9.1954 16.3451 9.268 17.6336 9.39504 18.8738H20.605C20.732 17.6336 20.8046 16.3451 20.8046 15.002C20.8046 13.659 20.732 12.3705 20.605 11.1303H9.39504C9.268 12.3705 9.1954 13.659 9.1954 15.002ZM28.8385 9.19443C27.1083 5.08674 23.6056 1.9107 19.2801 0.628182C20.7562 2.67295 21.7725 5.7522 22.3049 9.19443H28.8385ZM10.7199 0.628182C6.40048 1.9107 2.89171 5.08674 1.16757 9.19443H7.70115C8.22747 5.7522 9.2438 2.67295 10.7199 0.628182ZM29.4858 11.1303H22.5469C22.6739 12.4007 22.7465 13.7014 22.7465 15.002C22.7465 16.3027 22.6739 17.6034 22.5469 18.8738H29.4797C29.8125 17.6336 30 16.3451 30 15.002C30 13.659 29.8125 12.3705 29.4858 11.1303ZM7.25953 15.002C7.25953 13.7014 7.33212 12.4007 7.45917 11.1303H0.520266C0.193587 12.3705 0 13.659 0 15.002C0 16.3451 0.193587 17.6336 0.520266 18.8738H7.45312C7.33212 17.6034 7.25953 16.3027 7.25953 15.002ZM9.64912 20.8097C10.5263 26.212 12.5953 30.0051 15.003 30.0051C17.4108 30.0051 19.4797 26.212 20.3569 20.8097H9.64912ZM19.2861 29.3759C23.6056 28.0934 27.1143 24.9174 28.8445 20.8097H22.3109C21.7786 24.2519 20.7623 27.3311 19.2861 29.3759ZM1.16757 20.8097C2.89776 24.9174 6.40048 28.0934 10.726 29.3759C9.24985 27.3311 8.23351 24.2519 7.70115 20.8097H1.16757Z" fill="black" fill-opacity="0.38"/>
</svg>
